<svg xmlns:xlink="http://www.w3.org/1999/xlink" xmlns="http://www.w3.org/2000/svg" viewBox="1.14 1 221.24 46"><path id="rectangle" fill="#FF0000" d="M 33.990234 1 C 33.990234 1 13.440312 0.99914062 8.3203125 2.3691406 A 8.27 8.27 0 0 0 2.5097656 8.1796875 C 1.1397656 13.309688 1.140625 24 1.140625 24 C 1.140625 24 1.1397656 34.690313 2.5097656 39.820312 A 8.236 8.236 0 0 0 8.3203125 45.630859 C 13.450312 47.000859 34 47 34 47 C 34 47 54.549922 47.000859 59.669922 45.630859 A 8.236 8.236 0 0 0 65.480469 39.820312 C 66.860469 34.690312 66.859375 24 66.859375 24 C 66.859375 24 66.850469 13.309687 65.480469 8.1796875 A 8.236 8.236 0 0 0 59.669922 2.3691406 C 54.539922 0.99914062 33.990234 1 33.990234 1 z M 27.429688 14.140625 L 44.5 24 L 27.429688 33.859375 L 27.429688 14.140625 z "/><path id="triangle" fill="#FFFFFF" d="M 27.43,33.86 44.5,24 27.43,14.14 Z"/><path d="M93.28 15.6v1.59c0 7.95-3.52 12.59-11.23 12.59h-1.17v13.91h-6.29V4.27h8.02c7.33 0 10.67 3.11 10.67 11.33zm-6.63.56c0-5.73-1.03-7.09-4.6-7.09h-1.17v16.02h1.08c3.38 0 4.7-2.44 4.7-7.75l-.01-1.18zm21.52-1.74l-.33 7.47c-2.68-.56-4.89-.14-5.87 1.59v20.2h-6.25V14.89h4.98l.56 6.24h.24c.66-4.56 2.77-6.86 5.5-6.86.39.02.79.07 1.17.15zm7.19 17.05v1.46c0 5.08.28 6.81 2.44 6.81 2.07 0 2.54-1.59 2.58-4.89l5.59.33c.42 6.2-2.82 8.97-8.32 8.97-6.67 0-8.64-4.37-8.64-12.31v-5.03c0-8.36 2.21-12.45 8.83-12.45 6.67 0 8.36 3.48 8.36 12.17v4.94h-10.84zm0-5.93v2.07h4.74v-2.05c0-5.3-.38-6.81-2.38-6.81s-2.36 1.55-2.36 6.81v-.02zm43.13-3.61v21.75h-6.48V22.41c0-2.35-.61-3.52-2.02-3.52-1.13 0-2.16.66-2.87 1.88.04.39.06.78.05 1.17v21.75h-6.49V22.41c0-2.35-.61-3.52-2.02-3.52-1.13 0-2.12.66-2.82 1.83v22.97h-6.48v-28.8h5.12l.57 3.67h.09c1.46-2.77 3.81-4.28 6.58-4.28 2.73 0 4.28 1.36 4.98 3.81 1.5-2.49 3.76-3.81 6.34-3.81 3.95 0 5.45 2.82 5.45 7.65zm3.24-14.41c0-3.1 1.13-3.99 3.52-3.99 2.44 0 3.52 1.03 3.52 3.99 0 3.19-1.08 3.99-3.52 3.99-2.39 0-3.52-.8-3.52-3.99zm.38 7.37h6.2v28.8h-6.2v-28.8zm27.39 0v28.8h-5.07l-.56-3.52h-.14c-1.46 2.82-3.57 3.99-6.2 3.99-3.85 0-5.59-2.44-5.59-7.75V14.89h6.48v21.14c0 2.54.53 3.57 1.83 3.57 1.19-.05 2.26-.76 2.77-1.83V14.89h6.48zm32.88 7.04v21.75h-6.48V22.41c0-2.35-.61-3.52-2.02-3.52-1.13 0-2.16.66-2.87 1.88.04.39.06.77.05 1.16v21.75h-6.48V22.41c0-2.35-.61-3.52-2.02-3.52-1.13 0-2.12.66-2.82 1.83v22.97h-6.48v-28.8h5.12l.56 3.66h.09c1.46-2.77 3.81-4.28 6.58-4.28 2.73 0 4.28 1.36 4.98 3.81 1.5-2.49 3.76-3.81 6.34-3.81 3.96.01 5.45 2.83 5.45 7.66z" fill="#FFFFFF"/></svg>